<svg xmlns="http://www.w3.org/2000/svg" xmlns:xlink="http://www.w3.org/1999/xlink" viewBox="0,0,256,256" width="128px" height="128px"><g fill="red" fill-rule="nonzero" stroke="none" stroke-width="1" stroke-linecap="butt" stroke-linejoin="miter" stroke-miterlimit="10" stroke-dasharray="" stroke-dashoffset="0" font-family="none" font-weight="none" font-size="none" text-anchor="none" style="mix-blend-mode: normal"><g transform="scale(0.5,0.5)"><path d="M287.54883,75.84766c-13.924,0 -25.25195,11.32891 -25.25195,25.2539v21.49024c-4.63129,-5.26548 -11.4025,-8.59571 -18.93946,-8.59571c-13.924,0 -25.2539,11.35641 -25.2539,25.31641v113.46875c0,0.00669 0.00191,0.01285 0.00195,0.01953v24.48047c0,10.444 -8.51166,18.94141 -18.97266,18.94141c-10.458,0 -18.96875,-8.49741 -18.96875,-18.94141v-72.39648v-28.78711c0,-13.925 -11.3289,-25.25391 -25.2539,-25.25391c-13.924,0 -25.25391,11.32891 -25.25391,25.25391v26.73437h-12.89453c-1.744,0 -3.1582,1.4142 -3.1582,3.1582v15.07813c0,1.744 1.4142,3.1582 3.1582,3.1582h12.89453v7.6543h-16.89258c-1.744,0 -3.1582,1.41225 -3.1582,3.15625v55.83984c-30.33,9.932 -51.30859,38.69172 -51.30859,70.76172c0,8.46547 1.4399,16.59581 4.05273,24.18555c0.05735,0.26621 0.1381,0.52978 0.26172,0.77344c10.28799,28.84621 37.86689,49.55468 70.20312,49.55468c41.06111,0 74.4683,-33.38563 74.50977,-74.43945c0.00023,-0.00983 -0.00014,-0.01946 0,-0.0293c0.00001,-0.01507 0.00195,-0.02984 0.00195,-0.04492c0,-32.085 -20.96544,-60.84372 -51.27344,-70.76172v-55.83984c0,-1.744 -1.4142,-3.15625 -3.1582,-3.15625h-16.92187v-7.6543h12.95898c1.744,0 3.1582,-1.4142 3.1582,-3.1582v-15.07813c0,-1.744 -1.4142,-3.1582 -3.1582,-3.1582h-12.95898v-26.73437c0,-10.442 8.4955,-18.93946 18.9375,-18.93946c10.443,0 18.93945,8.49746 18.93945,18.93946v80.06445v21.11914c0,13.926 11.34025,25.25586 25.28125,25.25586c13.945,0 25.29002,-11.32986 25.29102,-25.25586v-113.5332c0,-0.00671 -0.00192,-0.01284 -0.00196,-0.01953v-24.41602c0,-10.478 8.4955,-19 18.9375,-19c10.442,0 18.93946,8.522 18.93946,19v34.11914v8.92969h-26.60547c-1.744,0 -3.15821,1.4142 -3.15821,3.1582v215.89063c0,19.156 15.11818,34.74218 33.70118,34.74218c18.584,0 33.70412,-15.58523 33.70312,-34.74023v-215.89258c0,-1.744 -1.4142,-3.1582 -3.1582,-3.1582h-28.16797v-43.04883v-38.21094c0,-10.443 8.4965,-18.93945 18.9375,-18.93945c10.462,0 18.97265,8.49745 18.97265,18.93945v113.53125v55.95703c0,12.455 7.51024,22.58789 16.74024,22.58789c9.249,0 16.77344,-10.13289 16.77344,-22.58789v-63.625v-24.43554c0,-10.478 7.8244,-19.00196 17.4414,-19.00196c9.617,0 17.44141,8.52396 17.44141,19.00196v20.30273h-12.53125c-1.743,0 -3.1582,1.4142 -3.1582,3.1582v15.07813c0,1.744 1.4152,3.1582 3.1582,3.1582h12.53125v8.17578h-13.80274c-1.743,0 -3.1582,1.41421 -3.1582,3.15821v41.17383c-10.912,1.67799 -18.76231,10.97464 -23.94531,28.30664l-29.99219,100.73242c-1.828,6.146 -0.52598,12.62609 3.66602,18.24609c5.413,7.257 15.02973,12.13281 23.92773,12.13281h93.71094c8.897,0 18.50997,-4.88048 23.91797,-12.14648c4.184,-5.62 5.47662,-12.09642 3.64062,-18.23242l-6.0039,-20.16406c-0.00975,-0.04113 -0.01002,-0.08198 -0.02149,-0.12305c-0.01558,-0.0558 -0.04415,-0.10397 -0.0625,-0.15821l-23.9043,-80.2832c-5.14,-17.334 -12.9811,-26.63354 -23.9121,-28.31054v-41.17383c0,-1.744 -1.41421,-3.15821 -3.15821,-3.15821h-14.58593v-8.17578h13.2871c1.745,0 3.15921,-1.4142 3.15821,-3.1582v-15.07813c0,-1.744 -1.41421,-3.1582 -3.15821,-3.1582h-13.2871v-20.30273c0,-13.96 -10.65586,-25.31641 -23.75586,-25.31641c-13.1,0 -23.75782,11.35641 -23.75782,25.31641v24.41601c-0.00004,0.00668 -0.00195,0.01285 -0.00195,0.01953v63.625c0,8.82 -4.78803,16.27149 -10.45703,16.27149c-5.651,0 -10.42383,-7.45149 -10.42383,-16.27149v-55.95507v-113.53321c0,-13.924 -11.34506,-25.2539 -25.28906,-25.2539zM238.84961,188.67773h23.44727v22.9668c0,1.744 1.41325,3.1582 3.15624,3.1582c1.744,0 3.15821,-1.4142 3.15821,-3.1582v-22.9668h25.01172v212.73243c0,15.674 -12.28668,28.42773 -27.38867,28.42773c-15.10001,0 -27.38477,-12.75373 -27.38477,-28.42773v-17.1836h11.39844c1.744,0 3.1582,-1.41325 3.1582,-3.15625c0,-1.744 -1.4142,-3.1582 -3.1582,-3.1582h-11.39844v-11.94531h21.08203c1.743,0 3.1582,-1.41421 3.1582,-3.15821c0,-1.743 -1.4152,-3.15625 -3.1582,-3.15625h-21.08203v-12.01172h11.39844c1.744,0 3.1582,-1.4142 3.1582,-3.1582c0,-1.743 -1.4142,-3.1582 -3.1582,-3.1582h-11.39844v-11.88086h21.08203c1.743,0 3.1582,-1.4142 3.1582,-3.1582c0,-1.744 -1.4152,-3.15821 -3.1582,-3.15821h-21.08203v-12.00976h11.39844c1.744,0 3.1582,-1.41421 3.1582,-3.15821c0,-1.744 -1.4142,-3.1582 -3.1582,-3.1582h-11.39844v-11.94726h21.08203c1.743,0 3.1582,-1.41421 3.1582,-3.15821c0,-1.744 -1.4152,-3.1582 -3.1582,-3.1582h-21.08203zM119.91992,209.14844h9.73633v8.76172h-9.73633zM135.97266,209.14844h9.80078v8.76172h-9.80078zM365.54492,209.14844h9.37305v8.76172h-9.37305zM381.23438,209.14844h10.13085v8.76172h-10.13085zM115.92188,238.19727h13.73437v10.29492c0,1.744 1.4142,3.1582 3.1582,3.1582c1.744,0 3.15821,-1.4142 3.15821,-3.1582v-10.29492h13.76367v55.00781c0,1.403 0.92839,2.63825 2.27539,3.03125c28.15477,8.21193 48.01258,34.02307 48.95508,63.23047c-9.72585,3.64496 -65.56673,23.34222 -84.86719,2.30468c-5.774,-6.274 -12.27889,-9.0254 -19.33789,-8.1914c-13.16173,1.56563 -24.56896,15.62553 -30.25781,23.95703c-1.22422,-5.10478 -1.89062,-10.42365 -1.89062,-15.89844c0,-30.076 20.16316,-56.97034 49.03516,-65.40234c1.347,-0.392 2.27344,-1.62925 2.27344,-3.03125zM364.27344,238.71875h10.64453v31.87109c0,1.743 1.4142,3.15625 3.1582,3.15625c1.743,0 3.1562,-1.41325 3.15821,-3.15625v-31.87109h11.42773v40.9043c0,1.713 1.36708,3.11425 3.08008,3.15625c9.463,0.233 16.3637,8.1054 21.0957,24.0664l23.00781,77.26953c-17.94798,4.52507 -56.7815,10.79173 -63.91406,-4.45507c-2.098,-4.456 -5.61598,-7.44286 -10.45898,-8.88086c-14.49928,-4.30217 -37.78461,7.03317 -48.25196,12.78711l22.84375,-76.72071c4.773,-15.962 11.68391,-23.83536 21.12891,-24.06836c1.713,-0.042 3.08008,-1.44325 3.08008,-3.15625zM128.7207,302.33008c-4.576,0 -8.16015,3.58611 -8.16015,8.16211c0,4.501 3.66015,8.16211 8.16015,8.16211c4.5,0 8.15916,-3.66111 8.16016,-8.16211c0,-4.5 -3.66016,-8.16211 -8.16016,-8.16211zM375.54492,305.06055c-3.93,0 -7.125,3.19409 -7.125,7.12109c0,3.928 3.195,7.12305 7.125,7.12305c3.946,0 7.15625,-3.19605 7.15625,-7.12305c0,-3.927 -3.21025,-7.12109 -7.15625,-7.12109zM128.7207,308.64648c1.017,0 1.84275,0.82871 1.84375,1.84571c0,0.985 -0.86175,1.84765 -1.84375,1.84765c-1.017,0 -1.8457,-0.82865 -1.8457,-1.84765c0,-1.052 0.7947,-1.84571 1.8457,-1.84571zM375.54492,311.37695c0.471,0 0.83985,0.35269 0.83985,0.80469c0,0.453 -0.36885,0.80859 -0.83985,0.80859c-0.447,0 -0.81054,-0.36359 -0.81054,-0.80859c-0.00001,-0.451 0.35654,-0.80469 0.81054,-0.80469zM403.22852,320.59375c-5.252,0 -9.52344,4.27239 -9.52344,9.52539c0,5.253 4.27144,9.52539 9.52344,9.52539c5.235,0 9.49414,-4.27239 9.49414,-9.52539c0,-5.253 -4.25914,-9.52539 -9.49414,-9.52539zM403.22852,326.90625c1.752,0 3.17868,1.44094 3.17968,3.21094c0,1.77 -1.42668,3.21093 -3.17968,3.21093c-1.769,0 -3.20899,-1.44093 -3.20899,-3.21093c0,-1.771 1.43999,-3.21094 3.20899,-3.21094zM100.9043,327.80664c-3.962,0 -7.18555,3.22355 -7.18555,7.18555c0,3.926 3.22455,7.12109 7.18555,7.12109c3.927,0 7.12109,-3.19509 7.12109,-7.12109c0,-3.962 -3.19509,-7.18555 -7.12109,-7.18555zM100.9043,334.12305c0.429,0 0.80468,0.40514 0.80468,0.86914c0,0.414 -0.39068,0.80664 -0.80468,0.80664c-0.489,0 -0.86914,-0.43364 -0.86914,-0.80664c0,-0.464 0.40614,-0.86914 0.86914,-0.86914zM355.59375,337.35938c-3.928,0 -7.12109,3.19504 -7.12109,7.12304c0,3.927 3.19309,7.1211 7.12109,7.1211c3.926,0 7.12109,-3.1951 7.12109,-7.1211c0,-3.928 -3.19509,-7.12304 -7.12109,-7.12304zM146.10156,340.2168c-4.5,0 -8.16211,3.66401 -8.16211,8.16601c0,4.5 3.66211,8.16016 8.16211,8.16016c4.503,0 8.16602,-3.66016 8.16602,-8.16016c0,-4.502 -3.66302,-8.16601 -8.16602,-8.16601zM355.59375,343.67383c0.467,0 0.80369,0.34059 0.80469,0.80859c0,0.467 -0.33769,0.80469 -0.80469,0.80469c-0.467,0 -0.80664,-0.33769 -0.80664,-0.80469c0,-0.468 0.33964,-0.80859 0.80664,-0.80859zM176.71289,345.02539c-3.946,0 -7.15625,3.197 -7.15625,7.125c0,3.926 3.21125,7.12109 7.15625,7.12109c3.945,0 7.15334,-3.19509 7.15234,-7.12109c0,-3.928 -3.20734,-7.125 -7.15234,-7.125zM146.10156,346.5332c1.038,0 1.84961,0.81361 1.84961,1.84961c0,1 -0.84661,1.84375 -1.84961,1.84375c-1,0 -1.8457,-0.84375 -1.8457,-1.84375c0,-1.036 0.8107,-1.84961 1.8457,-1.84961zM176.71289,351.3418c0.478,0 0.83889,0.34659 0.83789,0.80859c0,0.459 -0.35989,0.80469 -0.83789,0.80469c-0.456,0 -0.8418,-0.36869 -0.8418,-0.80469c0,-0.439 0.3858,-0.80859 0.8418,-0.80859zM402.70703,356.98438c-3.925,0 -7.11914,3.19504 -7.11914,7.12304c0,3.927 3.19414,7.1211 7.11914,7.1211c3.927,0 7.12109,-3.1951 7.12109,-7.1211c0.00001,-3.928 -3.19409,-7.12304 -7.12109,-7.12304zM99.36133,359.75195c4.28232,0.05304 8.25256,2.12905 12.08594,6.29493c7.871,8.579 20.37823,11.48732 33.74023,11.48632c21.9661,-0.00241 45.9656,-7.79217 55.65039,-11.28515c-2.38056,35.46137 -31.96912,63.58789 -68.02148,63.58789c-29.23525,0 -54.22718,-18.49231 -63.90821,-44.39063c4.55256,-7.67846 16.63902,-24.1701 28.59961,-25.59179c0.625,-0.07475 1.24176,-0.10914 1.85352,-0.10157zM402.70703,363.30078c0.467,0 0.80664,0.33864 0.80664,0.80664c0,0.467 -0.33964,0.80664 -0.80664,0.80664c-0.465,0 -0.80469,-0.33964 -0.80469,-0.80664c0,-0.468 0.33969,-0.80664 0.80469,-0.80664zM358.14258,376.12891c2.00855,-0.00564 3.8739,0.21232 5.53515,0.70507c3.085,0.916 5.22411,2.72077 6.53711,5.50977c4.129,8.825 14.83472,13.27148 31.88672,13.27148c3.269,0 6.77186,-0.16418 10.50586,-0.49218c12.32632,-1.08076 23.7739,-3.6558 29.03711,-4.96289l5.1875,17.41992c1.604,5.356 -0.5583,9.83734 -2.6543,12.65234c-4.21,5.655 -11.96251,9.60547 -18.85351,9.60547h-93.71094c-7.004,0 -14.58623,-3.85675 -18.86523,-9.59375c-2.102,-2.818 -4.27178,-7.30392 -2.67578,-12.66992l4.54882,-15.27734c0.15531,-0.06428 0.30949,-0.13352 0.45703,-0.22461c7.88463,-4.879 29.00459,-15.90388 43.06446,-15.94336z"></path></g></g></svg>